<svg xmlns="http://www.w3.org/2000/svg" width="191.22" height="25.63" viewBox="22.8 62.1 191.22 25.63">
    <path fill="#009BBE" d="M52.58 69.21c-.74 0-1.45.15-2.1.4a2.54 2.54 0 11-3.25 3.33 5.7 5.7 0 1011.05 1.98 5.7 5.7 0 00-5.7-5.7z"/>
    <path fill="#4B4B4B" d="M185.31 63.38v3.18l5.91 1.32v18.33h5.44v-16.2l.04-2.13 5.87-1.32v-3.18zM208.19 63.38h5.83v22.64h-5.83zM123.06 63.38l-4.38 8.98-4.35-8.98h-5.91l7.54 13.94v8.89h5.44v-8.89l7.54-13.94zM143 86.21l-5.1-17.23h-.13a57.15 57.15 0 01.32 6.94v10.3h-4.86V63.37h7.35l5.13 15.53 5.32-15.53h7.33v22.83h-5.05V75.8c0-.73.01-1.53.05-2.41l.1-2.53c.02-.8.05-1.41.07-1.84h-.12l-5.28 17.2H143zM176.64 76.78l-1.34-4.57a64.37 64.37 0 01-.93-3.54l-.42-1.74a170.01 170.01 0 01-.97 3.73l-.43 1.55-1.44 4.57h5.53zm-14 9.43l7.87-22.92h6.96l7.77 22.92h-5.95l-1.4-4.9h-7.9l-1.4 4.9h-5.95zM106.82 86.21h-6.2l-5.28-9.2-1.95 1.27v7.93h-5.47V63.38h5.47v10.2c.27-.46.58-.93.9-1.4l.98-1.38 5.57-7.41h5.97l-7.6 10.17 7.6 12.65z"/>
    <path fill="#EB7305" d="M38.32 69.47c.49-.33 1-.66 1.53-.98-.29-2.9-.63-3.58-1.21-3.88a1.1 1.1 0 00-1.1.08c-.85.53-1.11 2.34-1.63 8.75l-.03.33c-.11 1.4-.26 3.17-.43 4.56-.2-1.35-.36-3.06-.48-4.29l-.03-.3c-.47-4.88-.72-6.25-1.54-6.66a.99.99 0 00-.98.06c-.85.54-1.13 2.22-1.6 6.22l-.05.38c-.1.82-.24 2.06-.42 3-.19-.85-.36-1.96-.48-2.76l-.05-.28c-.41-2.7-.66-3.83-1.47-4.2a1.09 1.09 0 00-1.04.1c-.89.55-1.22 2.1-1.58 3.74l-.06.3c-.07.28-.22.96-.37 1.42-.2-.33-.38-.81-.53-1.22l-.12-.31c-.28-.75-.6-1.44-1.27-1.66a1.25 1.25 0 00-.4-.07h-.18v1.57l.03.05c.05.08.15.27.3.68l.12.3c.32.89.7 1.9 1.5 2.4.35.22.74.26 1.1.11.77-.32 1.06-1.37 1.4-2.94l.06-.3c.13-.57.3-1.38.5-1.98.18.73.33 1.71.4 2.25l.05.29c.42 2.75.72 4.47 1.6 5.02.32.2.68.23 1.01.07.8-.38 1.05-1.56 1.51-5.42l.05-.38c.11-.99.28-2.36.47-3.44.18 1.21.33 2.78.43 3.82l.03.3c.48 5.01.75 6.96 1.62 7.51a.98.98 0 00.96.05c.8-.4 1.05-1.65 1.57-7.9l.02-.3c.15-1.9.35-4.35.6-5.98.06.52.13 1.16.19 1.9z"/>
    <path fill="#4B4B4B" d="M75.8 73.97c-.34-.49-8.74-11.86-23.08-11.86-4.02 0-7.97.86-11.73 2.58l-.14.06c.19.58.34 1.45.48 2.85l-.02.01.13-.06c1.69-.83 3.4-1.46 5.14-1.9a11.08 11.08 0 00-.52 18.18 30 30 0 01-7.4-3.88l-.2-.18c-.23 1.7-.46 2.45-.82 2.8l.46.35c4.88 3.2 9.74 4.82 14.48 4.82 12.77 0 22.74-11.58 23.16-12.08l.7-.82-.63-.88zM52.65 84.1a9.2 9.2 0 010-18.37 9.2 9.2 0 010 18.37zm6.6-.29a11.07 11.07 0 00-.55-18.17c7.45 1.96 12.48 7.08 14.2 9.07-1.89 1.96-7.08 6.85-13.66 9.1z"/>
</svg>
